HIERARCHY
ROOT Hips
{
	OFFSET 0.000000 0.000000 0.000000 
	CHANNELS 6 Xposition Yposition Zposition Zrotation Yrotation Xrotation
	JOINT LeftUpLeg
	{
		OFFSET 1.363060 -1.794630 0.839290 
		CHANNELS 3 Zrotation Yrotation Xrotation
		JOINT LeftLeg
		{
			OFFSET 2.448110 -6.726130 0.000000 
			CHANNELS 3 Zrotation Yrotation Xrotation
			JOINT LeftFoot
			{
				OFFSET 2.562200 -7.039590 0.000000 
				CHANNELS 3 Zrotation Yrotation Xrotation
				JOINT LeftToeBase
				{
					OFFSET 0.157640 -0.433110 2.322550 
					CHANNELS 3 Zrotation Yrotation Xrotation
					End Site
					{
						OFFSET 0.000000 0.000000 0.000000 
					}
				}
			}
		}
	}
	JOINT RightUpLeg
	{
		OFFSET -1.305520 -1.794630 0.839290 
		CHANNELS 3 Zrotation Yrotation Xrotation
		JOINT RightLeg
		{
			OFFSET -2.542530 -6.985550 0.000000 
			CHANNELS 3 Zrotation Yrotation Xrotation
			JOINT RightFoot
			{
				OFFSET -2.568260 -7.056230 0.000000 
				CHANNELS 3 Zrotation Yrotation Xrotation
				JOINT RightToeBase
				{
					OFFSET -0.164730 -0.452590 2.363150 
					CHANNELS 3 Zrotation Yrotation Xrotation
					End Site
					{
						OFFSET 0.000000 0.000000 0.000000 
					}
				}
			}
		}
	}
	JOINT Spine
	{
		OFFSET 0.028270 2.035590 -0.193380 
		CHANNELS 3 Zrotation Yrotation Xrotation
		JOINT Spine1
		{
			OFFSET 0.056720 2.048850 -0.042750 
			CHANNELS 3 Zrotation Yrotation Xrotation
			JOINT Neck1
			{
				OFFSET -0.054170 1.746240 0.172020 
				CHANNELS 3 Zrotation Yrotation Xrotation
				JOINT Head
				{
					OFFSET 0.104070 1.761360 -0.123970 
					CHANNELS 3 Zrotation Yrotation Xrotation
					End Site
					{
						OFFSET 0.000000 0.000000 0.000000 
					}
				}
			}
			JOINT LeftArm
			{
				OFFSET 3.362410 1.200890 -0.311210 
				CHANNELS 3 Zrotation Yrotation Xrotation
				JOINT LeftForeArm
				{
					OFFSET 4.983000 -0.000000 -0.000000 
					CHANNELS 3 Zrotation Yrotation Xrotation
					JOINT LeftHand
					{
						OFFSET 3.483560 -0.000000 -0.000000 
						CHANNELS 3 Zrotation Yrotation Xrotation
						JOINT LeftHandIndex1
						{
							OFFSET 0.715260 -0.000000 -0.000000 
							CHANNELS 3 Zrotation Yrotation Xrotation
							End Site
							{
								OFFSET 0.000000 0.000000 0.000000 
							}
						}
					}
				}
			}
			JOINT RightArm
			{
				OFFSET -3.136600 1.374050 -0.404650 
				CHANNELS 3 Zrotation Yrotation Xrotation
				JOINT RightForeArm
				{
					OFFSET -5.241900 -0.000000 -0.000000 
					CHANNELS 3 Zrotation Yrotation Xrotation
					JOINT RightHand
					{
						OFFSET -3.444170 -0.000000 -0.000000 
						CHANNELS 3 Zrotation Yrotation Xrotation
						JOINT RightHandIndex1
						{
							OFFSET -0.622530 -0.000000 -0.000000 
							CHANNELS 3 Zrotation Yrotation Xrotation
							End Site
							{
								OFFSET 0.000000 0.000000 0.000000 
							}
						}
					}
				}
			}
		}
	}
}
MOTION
Frames: 16
Frame Time: 0.041667
0.103881 17.668768 -34.536750 -3.000758 -2.326958 5.578033 -6.930044 -3.400567 -27.244982 21.626706 19.151209 96.267458 1.808772 -7.779742 25.710941 0.017600 -0.857000 -2.355400 24.693485 13.163284 -22.472405 -5.268245 -12.590915 44.522817 2.641478 -8.979479 -0.241416 -0.030900 1.135300 -3.121200 2.996768 0.777278 -0.921979 1.574482 -0.116916 -10.930537 5.297664 -3.933175 8.443393 0.192700 -1.725700 7.588400 -84.527735 18.809343 43.269873 109.666426 -59.770030 -80.091443 -0.041667 -0.909519 -34.691863 -7.125000 0.000000 0.000000 72.035434 -12.937496 58.330173 -124.380554 56.919814 -90.162812 0.664116 -0.754348 -20.163159 7.125000 0.000000 0.000000 
0.075389 17.630710 -34.095647 -2.918814 -3.794609 6.246430 -6.854172 -1.977537 -30.183933 21.906151 19.472289 96.804653 1.721801 -7.484437 24.799209 0.003600 -0.390100 -1.072000 24.760030 14.418756 -20.945634 -5.322757 -12.497396 44.634546 2.722470 -9.156920 -1.257551 -0.089100 1.924900 -5.298000 2.784808 1.836630 -0.583062 1.139687 0.413400 -9.749804 5.303946 -4.604359 8.607837 -0.043300 -1.974900 8.061200 -83.243659 18.425588 44.061846 109.642891 -59.796058 -80.052518 -0.025423 -0.926092 -35.371965 -7.125000 0.000000 0.000000 73.029581 -9.958666 58.091902 -125.059432 56.531676 -90.755116 0.671699 -0.828502 -19.743950 7.125000 0.000000 0.000000 
0.089323 17.624887 -33.589554 -2.753501 -2.451473 7.308514 -6.758524 -3.413786 -33.066854 22.001159 19.744650 96.655505 1.534022 -6.397666 24.220363 -0.000000 -0.034000 -0.093400 24.671973 13.563859 -20.507107 -5.185080 -12.351594 44.162313 3.100504 -10.043321 -2.173522 -0.177600 2.714800 -7.485600 2.826706 1.368542 -0.761386 1.199359 0.240132 -9.114496 5.487130 -4.656076 8.403232 0.112100 -2.017900 7.863800 -83.180093 20.024475 44.155104 110.479633 -59.706644 -80.632082 -0.019094 -0.943463 -36.217193 -7.125000 0.000000 0.000000 72.509863 -8.956091 59.081266 -126.573833 55.907099 -91.952741 0.627008 -0.909406 -19.561196 7.125000 0.000000 0.000000 
0.091507 17.627174 -33.125574 -2.690541 -1.811519 7.665432 -6.668842 -4.122490 -35.325860 21.972023 19.990713 96.261926 1.346153 -5.763891 22.232534 0.049600 -1.436800 -3.951500 24.741495 13.105768 -19.306880 -5.067557 -12.186971 43.749255 3.375682 -10.675062 -2.900917 -0.247600 3.202200 -8.842200 2.898770 1.345676 -0.868533 1.364544 0.253361 -9.261370 5.580256 -4.808899 8.612362 0.186700 -2.085800 8.019300 -83.059420 21.260283 44.383112 111.318998 -59.580931 -81.236502 -0.011217 -0.950109 -37.160798 -7.125000 0.000000 0.000000 72.212917 -7.859449 59.487580 -128.434292 55.108872 -93.418052 0.618513 -0.932271 -20.897349 7.125000 0.000000 0.000000 
0.092338 17.644540 -32.680623 -2.555520 -0.926875 7.624034 -6.638402 -5.024902 -37.130471 21.788332 20.185318 95.464419 1.202499 -5.234479 20.715569 0.045900 -1.382700 -3.802500 24.839526 12.330980 -18.070919 -4.922530 -12.000579 43.210097 3.669739 -11.315278 -3.121940 -0.337100 3.731400 -10.322100 3.306441 0.704297 -1.867925 2.750049 0.062571 -12.039119 5.840729 -3.831814 7.410469 0.714500 -1.771200 6.375000 -84.574831 26.555363 43.092822 113.296763 -59.261087 -82.682309 0.003664 -0.922720 -38.204682 -7.125000 0.000000 0.000000 70.423608 -10.580269 61.805499 -131.204317 54.032439 -95.394831 0.612666 -0.836643 -22.784900 7.125000 0.000000 0.000000 
0.094210 17.678023 -32.222675 -2.663313 -0.331297 7.830889 -6.617734 -5.645920 -38.751045 21.417373 20.411485 94.116281 1.102515 -4.802959 19.702208 0.005500 -0.480900 -1.321300 25.056786 11.648425 -16.868943 -4.775079 -11.811706 42.592100 4.008440 -12.022921 -2.704495 -0.459600 4.348700 -12.059900 2.750671 1.461101 -1.225179 0.712282 0.314011 -10.266188 5.687420 -5.349686 8.633614 0.144900 -2.318000 7.892800 -81.464673 24.392820 45.620817 113.944177 -59.132497 -83.193156 0.038217 -0.913986 -40.086166 -7.125000 0.000000 0.000000 72.743355 -6.980454 59.717402 -132.706413 53.094656 -96.703666 0.692675 -0.945121 -22.914887 7.125000 0.000000 0.000000 
0.096602 17.704539 -31.757239 -2.765135 -0.165431 7.920690 -6.628750 -5.933703 -40.193793 20.913139 20.621032 92.403006 0.961316 -4.325839 16.785354 0.285700 -3.437700 -9.499800 25.245171 11.373820 -15.191641 -4.632310 -11.587241 41.901320 4.365964 -12.748705 -1.938667 -0.585500 4.899100 -13.621100 2.861068 1.666351 -1.482668 0.941315 0.430376 -11.116710 5.731842 -5.448014 8.502559 0.227200 -2.395100 7.701600 -81.421713 26.522258 45.681330 115.441752 -58.841017 -84.301431 0.030694 -0.899101 -41.258507 -7.125000 0.000000 0.000000 72.276292 -7.238740 60.606029 -134.409815 52.211584 -98.019795 0.663900 -0.993475 -21.836145 7.125000 0.000000 0.000000 
0.113655 17.741142 -31.262896 -2.771559 -0.199111 8.287594 -6.871758 -6.238652 -41.620305 20.243676 20.803944 90.173800 0.726378 -3.209065 12.450696 1.712300 -8.239300 -23.443300 25.068027 11.452498 -13.426697 -4.389371 -11.304356 40.957729 4.320213 -12.575634 -0.898700 -0.674200 5.250400 -14.624000 2.866066 1.886597 -1.626639 0.887374 0.560490 -11.216635 5.882659 -5.509001 8.530983 0.349300 -2.428300 7.642700 -81.331241 28.288193 45.550108 116.735982 -58.576737 -85.254572 0.036329 -0.895539 -42.128016 -7.125000 0.000000 0.000000 72.032729 -7.234446 61.441082 -135.460189 51.621791 -98.841562 0.634842 -1.047637 -19.919015 7.125000 0.000000 0.000000 
0.134348 17.799893 -30.757010 -2.754812 -0.254379 8.654047 -7.245761 -6.542461 -42.638367 19.214993 20.961643 87.078806 0.976385 -3.775248 19.504343 0.041000 1.307500 3.595200 24.768730 11.547667 -11.731115 -4.086529 -10.998996 39.903442 3.905770 -11.600387 0.554487 -0.717100 5.411500 -15.085900 2.662605 2.148877 -1.408774 0.178167 0.709853 -10.014259 6.157772 -5.794056 8.467204 0.442000 -2.532800 7.676300 -80.783809 28.627132 45.540364 117.232179 -58.498396 -85.623305 0.047966 -0.892280 -42.668973 -7.125000 0.000000 0.000000 72.629947 -5.855293 60.682991 -136.897752 50.706462 -100.088301 0.757471 -1.134732 -22.978333 7.125000 0.000000 0.000000 
0.153793 17.914692 -30.214730 -2.717437 -0.592325 8.936388 -7.688678 -6.503154 -43.054349 17.977836 20.952307 83.527805 0.942014 -3.809202 12.918574 0.972600 -6.278400 -17.594400 24.300374 11.627972 -9.926286 -3.733170 -10.639452 38.553925 3.641594 -10.999835 2.923121 -0.922600 6.119600 -17.131700 2.783475 2.701160 -1.714234 0.527416 1.001535 -10.792423 5.855830 -5.965590 8.871784 0.341500 -2.642600 7.806100 -81.211626 30.610064 45.435591 117.770910 -58.385086 -86.006809 0.042860 -0.884497 -42.704588 -7.125000 0.000000 0.000000 72.040532 -6.438884 61.163137 -137.864895 50.319902 -100.497520 0.611930 -0.939636 -20.036899 7.125000 0.000000 0.000000 
0.169287 18.020029 -29.687424 -2.620820 -0.409717 9.319945 -8.069559 -6.978056 -43.424788 16.567624 20.869620 79.468490 1.013906 -3.823298 13.978775 0.475200 -4.421100 -12.264600 23.833161 11.350022 -8.520097 -3.405426 -10.298075 37.201548 3.518580 -10.836550 5.781211 -0.944500 6.189700 -17.335700 2.759047 2.905880 -1.254705 0.498269 1.200253 -8.688039 5.876380 -6.147401 8.074339 0.346100 -2.771000 7.349800 -81.342500 30.514197 45.181660 117.927346 -58.389197 -86.100311 0.040817 -0.878258 -42.934176 -7.125000 0.000000 0.000000 72.043986 -5.131552 60.957751 -138.618609 49.960887 -100.899697 0.611407 -0.787205 -18.786846 7.125000 0.000000 0.000000 
0.175526 18.133268 -29.178731 -2.478695 0.419110 9.491294 -8.320508 -7.960916 -43.500518 14.987138 20.614384 75.025819 1.169682 -4.139472 14.000619 0.508200 -4.569600 -12.685000 23.374922 10.450584 -7.407066 -3.041670 -9.912597 35.645332 3.352598 -10.783604 9.352050 -1.001200 6.367300 -17.853900 2.713341 2.806514 -1.109930 0.395953 1.207801 -7.929483 5.973706 -6.248982 7.464515 0.392500 -2.845500 6.972600 -81.633852 31.065221 44.401640 117.940940 -58.414044 -86.112255 0.062136 -0.872004 -43.298237 -7.125000 0.000000 0.000000 72.208148 -4.521468 60.628428 -139.299598 49.573596 -101.351242 0.614224 -0.723749 -19.001472 7.125000 0.000000 0.000000 
0.150674 18.243076 -28.747922 -2.344605 3.420271 8.315949 -8.311742 -10.622753 -42.318712 13.277924 20.028610 70.326895 1.441128 -4.943384 14.935214 0.533000 -4.678200 -12.993100 23.553120 7.765718 -6.369863 -2.819174 -9.586879 34.363072 3.350070 -11.339052 12.861956 -1.130900 6.754300 -18.989600 2.617384 2.032605 -1.554729 -0.043775 0.698155 -11.134987 5.562484 -6.754575 8.951579 -0.049700 -2.973000 8.252500 -81.236880 32.073419 43.777799 118.076552 -58.333786 -86.284154 0.085602 -0.872161 -43.519991 -7.125000 0.000000 0.000000 72.925721 -4.532306 60.274789 -139.427173 49.404908 -101.491870 0.643767 -0.707052 -18.615599 7.125000 0.000000 0.000000 
0.187380 18.377944 -28.128173 -2.302543 1.822248 8.977186 -8.720982 -9.224320 -41.989272 11.381672 19.485022 65.115458 1.743526 -5.471170 15.081332 0.586500 -4.903500 -13.633600 22.378702 8.614112 -4.728785 -2.377203 -9.158681 32.603920 2.690657 -10.708299 17.636560 -1.074200 6.588300 -18.501400 2.628757 2.884319 -1.919500 0.101732 1.177810 -11.303040 5.532169 -6.647760 8.504005 0.075000 -2.998100 7.606100 -82.118732 34.769250 42.693250 118.435698 -58.314737 -86.511283 0.060178 -0.880972 -43.250643 -7.125000 0.000000 0.000000 72.453709 -6.438120 61.243653 -139.770897 49.246352 -101.708206 0.660085 -0.738947 -17.433559 7.125000 0.000000 0.000000 
0.197467 18.479537 -27.610121 -2.291616 3.085674 9.974863 -8.550524 -10.600540 -42.343258 9.468328 18.742733 59.860413 2.112233 -6.344622 15.992311 0.601700 -4.965300 -13.809500 21.851509 7.668691 -4.835041 -2.066225 -8.778776 30.938560 2.205931 -11.061124 22.976965 -0.890000 6.013400 -16.823300 2.650924 2.594202 -2.289481 0.097740 1.060950 -11.572368 5.598471 -6.759641 8.592566 0.141000 -3.057500 7.554400 -82.840166 36.081782 41.601073 118.310185 -58.392224 -86.399652 0.012633 -0.898819 -42.905291 -7.125000 0.000000 0.000000 72.328773 -7.166634 61.670903 -139.900288 49.157253 -101.826125 0.669945 -0.793486 -16.581384 7.125000 0.000000 0.000000 
0.205890 18.582482 -27.076264 -2.134991 3.668664 9.696730 -8.699943 -10.935842 -41.051345 7.477780 17.670171 54.426621 2.617243 -7.511199 16.611965 0.727700 -5.450700 -15.198600 21.032250 6.872396 -3.582315 -1.816863 -8.451024 29.256097 1.582095 -11.827838 28.754804 -0.718900 5.418200 -15.105400 2.532639 2.621051 -2.163258 -0.163174 1.096527 -11.381598 5.603546 -7.112553 8.857999 0.046700 -3.187500 7.824800 -82.954937 36.286775 40.874871 118.073616 -58.475518 -86.242393 -0.004703 -0.888911 -42.658671 -7.125000 0.000000 0.000000 72.693617 -6.683117 61.247219 -139.742766 49.189146 -101.795321 0.682483 -0.868722 -16.310481 7.125000 0.000000 0.000000 
